<svg width="25" height="24" viewBox="0 0 25 24" fill="none" xmlns="http://www.w3.org/2000/svg">
<g id="fluent:music-note-2-16-filled">
<g id="Group">
<path id="Vector" d="M18.0664 7.81491V15.4019C17.4945 15.0717 16.8296 14.9395 16.1748 15.0257C15.5201 15.1119 14.9121 15.4117 14.4451 15.8787C13.9781 16.3457 13.6783 16.9537 13.5921 17.6084C13.5059 18.2632 13.6381 18.9281 13.9684 19.5C14.2986 20.0719 14.8083 20.5189 15.4184 20.7716C16.0285 21.0244 16.705 21.0687 17.3429 20.8977C17.9808 20.7268 18.5445 20.3502 18.9465 19.8262C19.3485 19.3023 19.5664 18.6603 19.5664 17.9999V2.88891C19.5666 2.69637 19.5205 2.50659 19.432 2.33562C19.3434 2.16465 19.215 2.01749 19.0576 1.90658C18.9002 1.79567 18.7185 1.72426 18.5277 1.69839C18.3369 1.67251 18.1427 1.69293 17.9614 1.75791L8.36141 5.18691C8.12868 5.27035 7.92741 5.42364 7.78511 5.62581C7.64281 5.82799 7.56643 6.06918 7.56641 6.31641V16.9004C6.99454 16.5702 6.32971 16.438 5.67501 16.5241C5.02031 16.6103 4.41233 16.91 3.94534 17.3769C3.47835 17.8438 3.17845 18.4517 3.09215 19.1064C3.00584 19.7611 3.13794 20.4259 3.46798 20.9979C3.79801 21.5698 4.30754 22.0169 4.91754 22.2698C5.52754 22.5227 6.20393 22.5672 6.84184 22.3965C7.47974 22.2259 8.0435 21.8495 8.44571 21.3258C8.84792 20.802 9.0661 20.1602 9.06641 19.4999V11.0294L18.0664 7.81641V7.81491Z" fill="#666666"/>
</g>
</g>
</svg>
