<svg width="26" height="24" viewBox="0 0 26 24" fill="none" xmlns="http://www.w3.org/2000/svg">
<g id="Frame 627859">
<path id="Vector" d="M13.6611 2.14189C13.251 1.73102 12.6947 1.50012 12.1147 1.5H4.27123C3.69114 1.5 3.1348 1.73081 2.72461 2.14165C2.31443 2.5525 2.08398 3.10972 2.08398 3.69074V11.5467C2.08411 12.1277 2.31463 12.6849 2.72485 13.0956L11.4738 21.8586C11.884 22.2693 12.4402 22.5 13.0202 22.5C13.6002 22.5 14.1564 22.2693 14.5666 21.8586L22.41 14.0026C22.8201 13.5917 23.0504 13.0346 23.0504 12.4537C23.0504 11.8728 22.8201 11.3157 22.41 10.9049L13.6611 2.14189ZM7.55209 9.1676C6.97186 9.16746 6.41544 8.93645 6.00525 8.5254C5.59506 8.11435 5.36471 7.55693 5.36485 6.97576C5.365 6.3946 5.59563 5.83729 6.00603 5.42645C6.41642 5.0156 6.97295 4.78487 7.55319 4.78502C8.13343 4.78517 8.68984 5.01617 9.10003 5.42722C9.51022 5.83827 9.74058 6.39569 9.74043 6.97686C9.74029 7.55803 9.50965 8.11533 9.09926 8.52618C8.68886 8.93702 8.13233 9.16775 7.55209 9.1676Z" fill="#666666"/>
</g>
</svg>
